# xmcd CD database file
#
# Track frame offsets:
#	150
#	22430
#	42037
#	59707
#	76857
#	96196
#	117314
#	134727
#	152729
#	170006
#	187611
#	204353
#	224306
#	243584
#	260084
#	292577
#
# Disc length: 3977 seconds
#
# Revision: 1
# Processed by: cddbd v1.5.1PL2 Copyright (c) Steve Scherf et al.
# Submitted via: CDex 1.70beta1
#
DISCID=e90f8710
DTITLE=sg WANNA BE+ - The 3rd Masterpiece
DYEAR=2006
DGENRE=R&B
TTITLE0=내 사람 - Partner for Life
TTITLE1=느림보
TTITLE2=폭풍
TTITLE3=사랑했어요 (feat. 데니 안)
TTITLE4=Love Song
TTITLE5=비익조
TTITLE6=Run
TTITLE7=내가 너를
TTITLE8=욕심
TTITLE9=Wedding
TTITLE10=선인장
TTITLE11=I'm sorry
TTITLE12=웃다가 울다가
TTITLE13=Untouchable
TTITLE14=바람과 함께 사라지다
TTITLE15=DATA
EXTD=YEAR: 2006
EXTT0=
EXTT1=
EXTT2=
EXTT3=
EXTT4=
EXTT5=
EXTT6=
EXTT7=
EXTT8=
EXTT9=
EXTT10=
EXTT11=
EXTT12=
EXTT13=
EXTT14=
EXTT15=
PLAYORDER=
